# xmcd
#
# Track frame offsets: 
#        150
#        17805
#        32100
#        53035
#        66257
#        79655
#        93235
#        109915
#        125075
#        137265
#
# Disc length: 1975 seconds
#
# Revision: 1
# Processed by: cddbd v1.5.2PL0 Copyright (c) Steve Scherf et al.
# Submitted via: ExactAudioCopy v0.99pb4
#
DISCID=8007b50a
DTITLE=ConwayTwitty - Love Songs (Flashback)
DYEAR=2001
DGENRE=Country
TTITLE0=Somebody's Needin' Somebody
TTITLE1=Lost In The Feeling
TTITLE2=Fallin' For You For Years
TTITLE3=Slow Hand
TTITLE4=I Don't Know A Thing About Love (The Moon Song)
TTITLE5=Between Blue Eyes And Jeans
TTITLE6=Three Times A Lady
TTITLE7=Ain't She Something Else
TTITLE8=I Think I'm In love
TTITLE9=Desperado Love
EXTD=
EXTT0=
EXTT1=
EXTT2=
EXTT3=
EXTT4=
EXTT5=
EXTT6=
EXTT7=
EXTT8=
EXTT9=
PLAYORDER=
